<?xml version="1.0" standalone="no"?>
<!DOCTYPE svg PUBLIC "-//W3C//DTD SVG 20010904//EN"
 "http://www.w3.org/TR/2001/REC-SVG-20010904/DTD/svg10.dtd">
<svg version="1.0" xmlns="http://www.w3.org/2000/svg"
 width="500.000000pt" height="500.000000pt" viewBox="0 0 500.000000 500.000000"
 preserveAspectRatio="xMidYMid meet">

<g transform="translate(0.000000,500.000000) scale(0.100000,-0.100000)"
fill="#000000" stroke="none">
<path d="M2460 4361 c-36 -9 -83 -34 -385 -214 -148 -88 -301 -178 -340 -200
-38 -22 -84 -54 -102 -70 -64 -60 -63 -48 -63 -555 0 -302 4 -470 11 -489 17
-45 47 -71 174 -145 66 -39 152 -90 190 -113 136 -83 415 -245 464 -270 28
-14 60 -25 71 -25 21 0 137 55 199 95 20 12 171 103 336 201 165 97 311 186
325 196 60 46 59 39 60 557 0 462 -1 474 -21 507 -20 33 -61 59 -669 419 -170
101 -205 116 -250 106z m136 -136 c43 -25 223 -132 399 -238 l320 -192 0 -469
0 -469 -70 -42 c-38 -23 -153 -91 -255 -152 -102 -60 -244 -146 -317 -191
-193 -118 -182 -116 -289 -54 -49 28 -169 99 -266 159 -160 98 -224 136 -385
228 -29 17 -57 35 -62 40 -6 6 -12 194 -14 478 l-5 468 42 28 c61 42 636 386
713 427 42 22 75 33 88 30 12 -3 57 -26 101 -51z"/>
<path d="M2125 3925 c-33 -32 -35 -99 -5 -117 19 -12 20 -24 20 -183 0 -93 3
-179 6 -191 3 -12 24 -32 47 -44 23 -13 76 -50 118 -81 l75 -59 2 -386 c1
-358 2 -387 19 -400 43 -33 43 -35 43 409 l-1 422 -77 56 c-42 31 -96 69 -119
85 l-43 29 0 164 c0 137 3 166 16 175 8 7 18 30 21 51 10 81 -67 126 -122 70z
m73 -58 c3 -23 0 -27 -22 -27 -21 0 -26 5 -26 23 0 13 3 27 7 31 15 14 38 0
41 -27z"/>
<path d="M2410 3941 c0 -10 19 -25 25 -20 1 2 -3 10 -11 17 -8 7 -14 8 -14 3z"/>
<path d="M2745 3925 c-31 -31 -34 -84 -5 -110 18 -17 20 -31 20 -184 l0 -166
-64 -43 c-35 -23 -91 -64 -123 -91 l-58 -49 3 -416 2 -417 30 18 30 17 0 387
0 386 78 55 c42 30 99 70 125 87 l48 33 -2 177 c-2 171 -2 178 19 199 46 46
13 142 -49 142 -18 0 -39 -9 -54 -25z m73 -49 c5 -25 -12 -39 -37 -31 -24 7
-27 25 -9 43 17 17 42 11 46 -12z"/>
<path d="M2466 3768 c-3 -13 -6 -40 -6 -61 0 -25 -5 -40 -15 -44 -19 -7 -45
-55 -45 -83 0 -12 14 -35 30 -52 28 -28 30 -35 30 -104 0 -72 1 -75 23 -72 20
3 22 9 25 81 2 58 6 77 17 77 21 0 45 40 45 75 0 20 -11 43 -30 65 -18 21 -29
47 -30 65 -1 45 -11 75 -25 75 -7 0 -15 -10 -19 -22z m48 -163 c9 -25 -5 -45
-30 -45 -29 0 -41 24 -24 45 16 19 46 19 54 0z"/>
<path d="M2932 3768 c-11 -13 -24 -36 -28 -52 -6 -24 -3 -33 17 -50 l24 -21
-3 -197 -4 -198 -106 0 c-89 0 -112 -3 -139 -20 l-33 -20 0 -335 c0 -184 2
-335 5 -335 2 0 15 5 29 12 l26 11 2 216 3 216 219 3 c141 1 224 6 233 13 10
9 13 72 13 299 0 269 1 288 19 304 24 22 32 61 19 98 -19 54 -79 64 -121 20
-33 -34 -36 -81 -7 -107 19 -17 20 -31 20 -289 l0 -271 -194 -3 c-136 -2 -196
0 -201 8 -4 6 -4 36 0 66 l6 54 124 0 c68 0 130 3 139 6 14 5 16 34 16 223 0
180 3 220 16 239 35 51 8 132 -44 132 -17 0 -37 -10 -50 -22z m63 -48 c8 -13
-14 -42 -26 -34 -5 3 -9 14 -9 25 0 20 24 26 35 9z m195 -39 c0 -10 -7 -24
-16 -31 -12 -11 -18 -10 -31 3 -21 21 -9 47 22 47 18 0 25 -5 25 -19z"/>
<path d="M1982 3763 c-7 -3 -19 -18 -28 -35 -14 -27 -14 -32 2 -55 15 -23 16
-52 12 -255 l-5 -228 131 0 c72 0 137 -4 144 -9 9 -5 12 -25 10 -62 l-3 -54
-197 -3 -198 -2 0 275 c0 172 4 275 10 275 17 0 42 61 36 86 -14 53 -86 83
-127 51 -44 -33 -51 -96 -15 -125 l25 -19 3 -292 c3 -279 4 -293 23 -308 17
-12 55 -14 230 -11 l210 3 3 -212 2 -212 30 -21 30 -21 0 343 0 344 -29 17
c-23 13 -53 17 -134 17 -125 0 -114 -22 -116 223 -2 140 1 176 13 192 41 54
-2 123 -62 98z m-144 -85 c-3 -25 -34 -36 -50 -20 -17 17 -1 42 27 42 22 0 26
-4 23 -22z"/>
<path d="M2853 2895 c-20 -8 -34 -24 -42 -45 -15 -44 -15 -44 15 -79 48 -58
134 -27 134 48 0 61 -53 99 -107 76z m56 -58 c15 -19 -10 -53 -33 -44 -16 6
-22 38 -9 50 10 11 30 8 42 -6z"/>
<path d="M2042 2877 c-32 -34 -30 -89 4 -116 47 -37 102 -24 124 29 33 80 -69
150 -128 87z m85 -42 c6 -19 -21 -46 -40 -39 -20 7 -23 40 -4 47 18 8 40 4 44
-8z"/>
<path d="M3647 3374 c5 -14 3 -15 -15 -5 -21 11 -32 -1 -12 -14 5 -3 7 -12 3
-20 -3 -8 0 -15 6 -15 7 0 16 -10 20 -22 8 -20 0 -32 -54 -88 -35 -36 -66 -76
-69 -90 -18 -77 56 -59 158 38 40 38 87 77 105 88 28 16 43 44 23 44 -4 0 -32
20 -62 45 -30 25 -60 43 -67 41 -7 -3 -15 -1 -18 4 -10 16 -25 11 -18 -6z"/>
<path d="M973 3284 c-3 -9 -2 -24 4 -33 9 -14 39 -16 204 -19 242 -4 259 -1
259 38 l0 30 -230 0 c-204 0 -231 -2 -237 -16z"/>
<path d="M3950 3296 c0 -2 11 -6 25 -8 13 -3 22 -1 19 3 -5 9 -44 13 -44 5z"/>
<path d="M4448 2223 c7 -3 16 -2 19 1 4 3 -2 6 -13 5 -11 0 -14 -3 -6 -6z"/>
<path d="M4412 2208 c-7 -7 -12 -18 -12 -25 0 -18 22 -63 31 -63 4 0 1 13 -7
30 -12 22 -12 34 -4 50 12 23 10 26 -8 8z"/>
<path d="M4480 2211 c0 -6 -6 -8 -14 -5 -8 3 -16 2 -19 -3 -3 -5 5 -10 18 -11
26 -2 42 13 25 23 -5 3 -10 2 -10 -4z"/>
<path d="M2272 2173 c-16 -3 -22 -9 -18 -20 3 -8 6 -102 6 -209 l0 -194 30 0
c29 0 30 2 30 44 0 29 6 51 17 62 16 15 18 15 42 -12 15 -16 38 -44 52 -62 23
-30 30 -33 68 -30 l43 3 -71 82 -71 82 50 57 c37 42 47 60 38 66 -25 16 -41 7
-101 -58 l-62 -66 -5 127 c-3 74 -9 129 -15 130 -5 1 -20 0 -33 -2z"/>
<path d="M2574 2166 c-9 -23 -1 -48 18 -60 14 -8 22 -6 40 11 21 22 21 23 3
43 -21 23 -53 26 -61 6z"/>
<path d="M2700 1965 l0 -215 41 0 40 0 -8 58 c-4 31 -7 128 -7 215 l1 157 -33
0 -34 0 0 -215z"/>
<path d="M2866 2172 l-39 -3 7 -67 c3 -37 6 -131 6 -209 l0 -143 38 0 39 0 -3
211 c-1 115 -4 211 -5 212 -2 1 -21 1 -43 -1z"/>
<path d="M4488 2149 c-9 -16 -13 -29 -7 -29 9 0 33 49 27 56 -2 1 -11 -11 -20
-27z"/>
<path d="M1996 2156 c-60 -22 -88 -56 -90 -106 -1 -35 4 -46 31 -70 17 -15 57
-35 90 -44 107 -29 134 -56 97 -97 -23 -25 -95 -25 -151 1 -42 18 -42 18 -68
-1 -31 -25 -26 -35 39 -65 60 -28 151 -32 196 -9 37 19 70 74 70 115 0 44 -52
93 -117 109 -110 28 -137 56 -94 95 20 18 84 19 136 2 14 -4 25 1 38 19 18 24
17 25 -17 39 -56 23 -117 28 -160 12z"/>
<path d="M540 2128 c-73 -45 -104 -101 -97 -179 7 -77 38 -134 94 -170 162
-102 364 81 284 257 -53 116 -174 156 -281 92z m159 -62 c35 -19 51 -55 51
-117 0 -45 -4 -55 -34 -85 -26 -26 -42 -34 -70 -34 -80 0 -132 57 -123 135 10
94 95 142 176 101z"/>
<path d="M2988 2154 c-5 -4 -8 -97 -8 -206 l0 -199 38 3 37 3 3 73 3 72 37 0
c35 0 39 -3 80 -75 l44 -75 44 0 c24 0 44 2 44 5 0 3 -22 38 -50 77 -48 68
-54 88 -25 88 21 0 56 57 62 98 5 46 -22 94 -69 119 -35 18 -226 32 -240 17z
m197 -76 c55 -25 36 -101 -28 -113 -18 -4 -49 -5 -68 -3 l-34 3 -3 63 -3 62
55 0 c30 0 67 -5 81 -12z"/>
<path d="M4440 2150 c0 -5 5 -10 11 -10 5 0 7 5 4 10 -3 6 -8 10 -11 10 -2 0
-4 -4 -4 -10z"/>
<path d="M870 1855 l0 -205 29 0 c53 0 56 5 53 77 l-4 66 27 -22 c44 -34 130
-27 171 14 6 6 22 31 34 54 65 129 -93 285 -199 195 -29 -24 -31 -24 -31 -6 0
22 -18 32 -56 32 l-24 0 0 -205z m220 108 c17 -22 21 -37 17 -68 -7 -48 -36
-75 -82 -75 -41 0 -75 38 -75 85 0 79 93 117 140 58z"/>
<path d="M1315 2046 c-40 -17 -91 -77 -100 -114 -9 -42 10 -105 43 -140 50
-53 144 -63 216 -22 41 22 42 35 5 50 -24 10 -36 11 -50 2 -29 -18 -73 -14
-103 9 -14 11 -26 25 -26 30 0 5 45 9 99 9 55 0 106 3 115 6 40 15 -8 127 -69
161 -45 26 -86 28 -130 9z m107 -73 c35 -41 33 -43 -46 -43 -60 0 -76 3 -76
14 0 40 94 62 122 29z"/>
<path d="M1676 2041 c-29 -15 -36 -16 -32 -5 4 11 -4 14 -34 14 l-40 0 0 -144
0 -144 31 -7 c17 -4 33 -5 35 -2 3 3 7 47 9 98 4 110 8 125 40 133 54 14 75
-19 75 -113 0 -32 3 -73 6 -90 6 -30 9 -32 43 -29 l36 3 0 100 c0 120 -12 154
-64 183 -47 27 -57 27 -105 3z"/>
<path d="M3415 2040 c-81 -40 -111 -142 -65 -218 66 -107 234 -93 290 24 19
42 20 52 10 90 -20 71 -92 124 -170 124 -14 0 -43 -9 -65 -20z m142 -72 c22
-18 26 -73 9 -107 -42 -80 -166 -42 -166 51 0 71 97 106 157 56z"/>
<path d="M3780 2049 c-120 -50 -132 -226 -20 -284 37 -19 113 -19 148 -1 31
16 74 61 91 93 26 51 -2 129 -63 171 -38 26 -119 37 -156 21z m90 -59 c23 0
50 -46 50 -82 0 -83 -92 -119 -144 -57 -43 51 -31 109 27 134 18 8 38 12 45
10 8 -3 18 -5 22 -5z"/>
<path d="M4150 2035 c-28 -30 -44 -32 -35 -5 6 17 2 20 -29 20 l-36 0 0 -150
0 -150 34 0 33 0 5 101 c4 85 8 104 26 122 18 17 26 19 49 11 28 -9 28 -10 33
-119 l5 -110 38 -3 38 -3 -3 104 c-2 77 1 108 11 120 15 19 43 22 72 7 17 -10
19 -22 19 -121 l0 -110 36 3 36 3 -1 119 c0 107 -3 121 -22 142 -45 48 -111
55 -146 14 -16 -18 -17 -18 -46 6 -38 32 -86 32 -117 -1z"/>
<path d="M2570 1900 l0 -150 35 0 35 0 0 150 0 150 -35 0 -35 0 0 -150z"/>
<path d="M683 1633 c-39 -4 -63 -23 -28 -23 11 0 15 -12 15 -50 0 -27 5 -50
10 -50 6 0 10 21 10 46 0 37 4 47 20 51 11 3 20 12 20 19 0 8 -1 13 -2 12 -2
-1 -22 -3 -45 -5z"/>
<path d="M917 1633 c-4 -3 -7 -33 -7 -65 l0 -58 40 0 c22 0 40 5 40 10 0 6
-11 10 -25 10 -16 0 -25 6 -25 15 0 8 9 15 19 15 11 0 23 5 26 10 4 6 -5 10
-19 10 -35 0 -34 28 1 32 44 5 41 28 -4 28 -22 0 -43 -3 -46 -7z"/>
<path d="M1105 1631 c-9 -16 7 -95 23 -113 37 -44 82 -3 82 74 0 47 -12 63
-24 32 -3 -9 -6 -31 -6 -50 0 -23 -6 -37 -16 -41 -22 -8 -34 14 -34 65 0 39
-11 54 -25 33z"/>
<path d="M1250 1575 c0 -62 1 -65 25 -66 14 -1 30 -2 37 -3 6 -1 13 5 16 12 2
7 -6 12 -22 12 -25 0 -26 3 -26 55 0 42 -3 55 -15 55 -12 0 -15 -14 -15 -65z"/>
<path d="M1350 1624 c0 -7 7 -14 15 -18 10 -4 15 -20 15 -51 0 -25 5 -45 10
-45 6 0 10 23 10 50 0 38 4 50 15 50 8 0 15 7 15 15 0 12 -10 15 -40 13 -22
-2 -40 -8 -40 -14z"/>
<path d="M1837 1634 c-13 -13 -7 -24 13 -24 18 0 20 -7 20 -55 0 -30 5 -55 10
-55 6 0 10 25 10 55 0 48 2 55 20 55 11 0 20 5 20 10 0 6 -6 10 -14 10 -7 0
-26 3 -42 6 -16 3 -32 2 -37 -2z"/>
<path d="M1964 1623 c3 -8 6 -38 6 -67 l0 -52 35 4 c40 5 48 22 10 22 -16 0
-25 6 -25 15 0 9 9 15 25 15 14 0 25 5 25 10 0 6 -11 10 -25 10 -35 0 -33 28
3 32 39 4 24 22 -21 24 -30 2 -37 -1 -33 -13z"/>
<path d="M2411 1594 c-29 -65 -36 -94 -22 -94 6 0 14 7 17 15 8 20 50 19 58
-2 5 -11 10 -13 17 -6 10 10 -21 107 -41 127 -4 4 -18 -13 -29 -40z m34 -34
c-5 -8 -11 -8 -17 -2 -6 6 -7 16 -3 22 5 8 11 8 17 2 6 -6 7 -16 3 -22z"/>
<path d="M2885 1629 c-10 -27 -1 -112 13 -117 8 -2 12 8 12 35 l0 38 27 -38
c14 -20 30 -37 35 -37 4 0 8 29 8 65 0 37 -4 65 -10 65 -5 0 -10 -17 -10 -37
l0 -38 -34 40 c-28 32 -36 37 -41 24z"/>
<path d="M3045 1614 c-27 -29 -30 -45 -15 -74 18 -34 48 -44 76 -25 34 22 33
65 -1 65 -14 0 -25 -4 -25 -10 0 -5 5 -10 10 -10 6 0 10 -7 10 -15 0 -22 -28
-18 -40 5 -6 12 -8 30 -5 41 6 17 13 20 36 15 32 -6 43 17 13 28 -26 10 -34 7
-59 -20z"/>
<path d="M3350 1628 c0 -6 9 -21 20 -33 l20 -22 -20 -25 c-11 -15 -20 -29 -20
-32 0 -13 23 -5 35 11 12 16 15 16 33 -7 29 -35 39 -18 13 23 -19 31 -19 35
-5 56 20 27 8 44 -12 17 -14 -19 -14 -19 -34 2 -24 25 -30 27 -30 10z"/>
<path d="M3620 1573 l0 -63 35 0 c19 0 35 5 35 10 0 6 -11 10 -25 10 -16 0
-25 6 -25 15 0 8 9 15 20 15 26 0 26 16 -1 23 -27 7 -15 27 17 27 40 0 27 18
-16 22 l-40 4 0 -63z"/>
<path d="M3870 1575 c0 -49 3 -66 13 -62 17 5 18 103 1 118 -12 10 -14 0 -14
-56z"/>
<path d="M3940 1573 l0 -63 40 0 c22 0 40 5 40 10 0 6 -11 10 -25 10 -16 0
-25 6 -25 15 0 8 9 15 20 15 11 0 20 5 20 10 0 6 -9 10 -20 10 -27 0 -26 28 2
32 39 6 30 24 -12 23 l-40 0 0 -62z"/>
<path d="M4135 1628 c-2 -7 -5 -24 -7 -38 -3 -25 -3 -25 -23 8 -32 52 -46 42
-43 -30 3 -66 19 -82 28 -28 l5 32 18 -31 c31 -52 47 -40 47 34 0 38 -4 65
-10 65 -6 0 -13 -6 -15 -12z"/>
<path d="M4232 1633 c-7 -3 -19 -18 -28 -34 -30 -59 31 -119 78 -78 l23 20
-32 -5 c-39 -6 -58 13 -49 50 6 23 11 26 36 20 22 -4 30 -2 30 8 0 21 -30 30
-58 19z"/>
<path d="M770 1571 c0 -33 5 -63 10 -66 6 -4 10 5 10 19 0 21 5 26 25 26 20 0
25 -5 25 -25 0 -14 5 -25 10 -25 6 0 10 28 10 65 0 62 -15 91 -22 43 -2 -15
-10 -23 -23 -23 -13 0 -21 8 -23 23 -7 46 -22 20 -22 -37z"/>
<path d="M1470 1569 c0 -81 24 -77 28 4 2 46 0 57 -13 57 -12 0 -15 -13 -15
-61z"/>
<path d="M1549 1593 c-5 -49 0 -83 12 -83 5 0 9 15 9 32 l0 32 17 -23 16 -24
19 23 18 22 0 -37 c0 -25 4 -35 13 -33 25 9 19 128 -7 128 -7 0 -18 -12 -25
-27 l-13 -28 -20 28 c-26 36 -35 34 -39 -10z"/>
<path d="M1730 1575 c-24 -60 -21 -78 8 -52 25 23 49 21 55 -3 6 -22 27 -28
27 -8 0 25 -44 118 -56 118 -6 0 -22 -25 -34 -55z m40 -5 c0 -11 -4 -20 -10
-20 -5 0 -10 9 -10 20 0 11 5 20 10 20 6 0 10 -9 10 -20z"/>
<path d="M2160 1570 l0 -60 35 0 c19 0 35 5 35 10 0 6 -11 10 -25 10 -23 0
-25 3 -25 50 0 28 -4 50 -10 50 -6 0 -10 -27 -10 -60z"/>
<path d="M2270 1570 l0 -60 40 0 c22 0 40 5 40 10 0 6 -13 10 -30 10 -38 0
-39 17 -2 32 l27 12 -27 4 c-39 5 -37 32 2 32 17 0 30 5 30 10 0 6 -18 10 -40
10 l-40 0 0 -60z"/>
<path d="M2530 1571 c0 -34 4 -61 10 -61 6 0 10 9 10 20 0 27 14 25 30 -5 7
-14 17 -25 22 -25 12 0 10 24 -4 38 -8 8 -8 15 1 26 7 8 11 25 9 38 -2 19 -10
24 -40 26 l-38 3 0 -60z m53 32 c9 -9 -13 -34 -24 -27 -14 8 -11 34 4 34 8 0
17 -3 20 -7z"/>
<path d="M2657 1601 c-7 -35 2 -101 14 -101 5 0 9 17 9 38 l0 37 35 -40 34
-40 1 68 c0 38 -4 67 -10 67 -5 0 -10 -13 -10 -30 0 -38 -10 -38 -32 0 -21 38
-34 38 -41 1z"/>
<path d="M2810 1570 c0 -33 4 -60 10 -60 6 0 10 27 10 60 0 33 -4 60 -10 60
-6 0 -10 -27 -10 -60z"/>
<path d="M3240 1570 l0 -60 35 0 c19 0 35 5 35 10 0 6 -11 10 -25 10 -16 0
-25 6 -25 15 0 8 9 15 20 15 11 0 20 5 20 10 0 6 -9 10 -20 10 -11 0 -20 7
-20 15 0 9 9 15 25 15 14 0 25 5 25 10 0 6 -16 10 -35 10 l-35 0 0 -60z"/>
<path d="M3490 1571 c0 -33 5 -63 10 -66 6 -3 10 3 10 15 0 11 8 23 18 26 37
12 47 22 47 50 0 27 -3 29 -42 32 l-43 3 0 -60z m60 18 c0 -25 -33 -22 -38 4
-2 12 3 17 17 17 15 0 21 -6 21 -21z"/>
<path d="M3740 1565 c0 -37 4 -65 10 -65 6 0 10 11 10 25 0 14 5 25 10 25 6 0
16 -11 22 -25 6 -14 17 -25 24 -25 11 0 11 5 2 26 -9 20 -9 30 0 45 20 31 -1
59 -43 59 l-35 0 0 -65z m60 31 c0 -21 -21 -31 -31 -15 -14 22 -11 29 11 29
11 0 20 -6 20 -14z"/>
<path d="M4336 1614 c-3 -9 -6 -36 -6 -60 l0 -44 40 0 c22 0 40 5 40 10 0 6
-11 10 -25 10 -16 0 -25 6 -25 15 0 8 9 15 20 15 11 0 20 5 20 10 0 6 -9 10
-20 10 -11 0 -20 7 -20 15 0 9 9 15 24 15 14 0 28 5 31 10 4 6 -10 10 -33 10
-27 0 -42 -5 -46 -16z"/>
<path d="M1095 1300 c-11 -5 255 -9 623 -9 422 -1 642 2 642 9 0 13 -1236 13
-1265 0z"/>
<path d="M2720 1300 c0 -7 201 -9 588 -8 339 1 545 4 487 8 -160 12 -1075 12
-1075 0z"/>
<path d="M2658 1293 c6 -2 18 -2 25 0 6 3 1 5 -13 5 -14 0 -19 -2 -12 -5z"/>
<path d="M2395 1190 c3 -5 0 -7 -9 -4 -22 8 -31 -37 -16 -80 6 -20 17 -36 24
-36 7 0 31 -19 54 -42 l42 -42 38 37 c21 20 48 37 60 37 20 0 22 5 22 54 0 51
-1 55 -22 51 -13 -3 -39 -23 -58 -45 -19 -22 -39 -40 -45 -40 -11 0 -52 57
-57 80 -3 16 -23 40 -33 40 -3 0 -3 -4 0 -10z"/>
</g>
</svg>
